<svg width="12" height="12" viewBox="0 0 12 12" fill="none" xmlns="http://www.w3.org/2000/svg">
<g id="information-circle">
<path id="Vector" d="M6 1.3125C3.41531 1.3125 1.3125 3.41531 1.3125 6C1.3125 8.58469 3.41531 10.6875 6 10.6875C8.58469 10.6875 10.6875 8.58469 10.6875 6C10.6875 3.41531 8.58469 1.3125 6 1.3125ZM6 3.23438C6.12052 3.23438 6.23834 3.27011 6.33855 3.33707C6.43876 3.40403 6.51687 3.4992 6.56299 3.61055C6.60911 3.7219 6.62118 3.84443 6.59767 3.96263C6.57415 4.08084 6.51612 4.18942 6.43089 4.27464C6.34567 4.35987 6.23709 4.4179 6.11888 4.44142C6.00068 4.46493 5.87815 4.45286 5.7668 4.40674C5.65545 4.36062 5.56028 4.28251 5.49332 4.1823C5.42636 4.08209 5.39062 3.96427 5.39062 3.84375C5.39062 3.68213 5.45483 3.52714 5.56911 3.41286C5.68339 3.29858 5.83838 3.23438 6 3.23438ZM7.125 8.53125H5.0625C4.96304 8.53125 4.86766 8.49174 4.79734 8.42142C4.72701 8.35109 4.6875 8.25571 4.6875 8.15625C4.6875 8.05679 4.72701 7.96141 4.79734 7.89108C4.86766 7.82076 4.96304 7.78125 5.0625 7.78125H5.71875V5.71875H5.34375C5.24429 5.71875 5.14891 5.67924 5.07859 5.60891C5.00826 5.53859 4.96875 5.44321 4.96875 5.34375C4.96875 5.24429 5.00826 5.14891 5.07859 5.07859C5.14891 5.00826 5.24429 4.96875 5.34375 4.96875H6.09375C6.19321 4.96875 6.28859 5.00826 6.35892 5.07859C6.42924 5.14891 6.46875 5.24429 6.46875 5.34375V7.78125H7.125C7.22446 7.78125 7.31984 7.82076 7.39017 7.89108C7.46049 7.96141 7.5 8.05679 7.5 8.15625C7.5 8.25571 7.46049 8.35109 7.39017 8.42142C7.31984 8.49174 7.22446 8.53125 7.125 8.53125Z" fill="#8C8C8C"/>
</g>
</svg>
