<svg width="20" height="14" viewBox="0 0 20 14" fill="none" xmlns="http://www.w3.org/2000/svg">
<g id="Group">
<path id="Vector" d="M7.45866 4.33237V3.14539C7.58114 3.13316 7.69137 3.13316 7.81384 3.13316C11.0839 3.03526 13.2272 5.94765 13.2272 5.94765C13.2272 5.94765 10.9124 9.14148 8.42621 9.14148C8.09553 9.14148 7.7771 9.09253 7.45866 8.9824V5.37251C8.73239 5.53159 8.98959 6.08225 9.74893 7.35489L11.4513 5.92317C11.4513 5.92317 10.2021 4.29566 8.12002 4.29566C7.89957 4.29566 7.67912 4.3079 7.45866 4.33237ZM7.45866 0.39209V2.16644L7.81384 2.14197C12.3576 1.98289 15.3215 5.86199 15.3215 5.86199C15.3215 5.86199 11.9167 10.0103 8.37722 10.0103C8.07103 10.0103 7.76485 9.98582 7.45866 9.92464V11.026C7.70361 11.0504 7.96081 11.0749 8.218 11.0749C11.5126 11.0749 13.9008 9.38622 16.2156 7.40384C16.5952 7.70976 18.1629 8.45621 18.4936 8.77437C16.3013 10.6099 11.1819 12.0906 8.27924 12.0906C7.99755 12.0906 7.74036 12.0783 7.47091 12.0416V13.6079H20V0.39209H7.45866ZM7.45866 8.99463V9.93688C4.40906 9.38622 3.56399 6.21686 3.56399 6.21686C3.56399 6.21686 5.03368 4.60159 7.45866 4.33237V5.36027H7.44642C6.17269 5.20119 5.1684 6.40041 5.1684 6.40041C5.1684 6.40041 5.74403 8.40726 7.45866 8.99463ZM2.04532 6.08225C2.04532 6.08225 3.84568 3.41461 7.45866 3.14539V2.17868C3.45377 2.49684 0 5.87422 0 5.87422C0 5.87422 1.95958 11.5399 7.45866 12.0539V11.026C3.41702 10.5242 2.04532 6.08225 2.04532 6.08225Z" fill="#76B900"/>
</g>
</svg>
