<svg width="30" height="30" viewBox="0 0 30 30" fill="none" xmlns="http://www.w3.org/2000/svg">
<path d="M11.731 11.5685V10.0417C11.8886 10.0259 12.0304 10.0259 12.1879 10.0259C16.3943 9.9 19.1513 13.6463 19.1513 13.6463C19.1513 13.6463 16.1737 17.7546 12.9756 17.7546C12.5503 17.7546 12.1407 17.6917 11.731 17.55V12.9065C13.3695 13.1111 13.7003 13.8194 14.6771 15.4565L16.8669 13.6148C16.8669 13.6148 15.26 11.5213 12.5818 11.5213C12.2982 11.5213 12.0146 11.537 11.731 11.5685ZM11.731 6.5V8.78241L12.1879 8.75093C18.0327 8.5463 21.8453 13.5361 21.8453 13.5361C21.8453 13.5361 17.4656 18.8722 12.9126 18.8722C12.5188 18.8722 12.1249 18.8407 11.731 18.762V20.1787C12.0461 20.2102 12.377 20.2417 12.7078 20.2417C16.9457 20.2417 20.0178 18.0694 22.9953 15.5194C23.4837 15.913 25.5003 16.8731 25.9256 17.2824C23.1056 19.6435 16.5203 21.5481 12.7866 21.5481C12.4242 21.5481 12.0934 21.5324 11.7468 21.4852V23.5H27.8634V6.5H11.731ZM11.731 17.5657V18.7778C7.80824 18.0694 6.7212 13.9926 6.7212 13.9926C6.7212 13.9926 8.61171 11.9148 11.731 11.5685V12.8907H11.7153C10.0769 12.6861 8.78501 14.2287 8.78501 14.2287C8.78501 14.2287 9.52546 16.8102 11.731 17.5657ZM4.76768 13.8194C4.76768 13.8194 7.08355 10.388 11.731 10.0417V8.79815C6.57941 9.20741 2.13672 13.5519 2.13672 13.5519C2.13672 13.5519 4.6574 20.8398 11.731 21.5009V20.1787C6.53215 19.5333 4.76768 13.8194 4.76768 13.8194Z" fill="#76B900"/>
</svg>
