<svg width="50" height="34" viewBox="0 0 50 34" fill="none" xmlns="http://www.w3.org/2000/svg">
<path d="M18.6467 10.3309V7.36348C18.9528 7.33289 19.2284 7.33289 19.5346 7.33289C27.7097 7.08815 33.068 14.3691 33.068 14.3691C33.068 14.3691 27.2811 22.3537 21.0655 22.3537C20.2388 22.3537 19.4427 22.2313 18.6467 21.956V12.9313C21.831 13.329 22.474 14.7056 24.3723 17.8872L28.6283 14.3079C28.6283 14.3079 25.5052 10.2392 20.3001 10.2392C19.7489 10.2392 19.1978 10.2697 18.6467 10.3309ZM18.6467 0.480225V4.9161L19.5346 4.85492C30.8941 4.45722 38.3037 14.155 38.3037 14.155C38.3037 14.155 29.7918 24.5257 20.943 24.5257C20.1776 24.5257 19.4121 24.4646 18.6467 24.3116V27.0649C19.259 27.1261 19.902 27.1873 20.545 27.1873C28.7814 27.1873 34.752 22.9655 40.5389 18.0096C41.4881 18.7744 45.4072 20.6405 46.2339 21.4359C40.7532 26.0248 27.9547 29.7264 20.6981 29.7264C19.9939 29.7264 19.3509 29.6958 18.6773 29.6041V33.5199H50V0.480225H18.6467ZM18.6467 21.9866V24.3422C11.0227 22.9655 8.90998 15.0421 8.90998 15.0421C8.90998 15.0421 12.5842 11.004 18.6467 10.3309V12.9007H18.616C15.4317 12.503 12.921 15.501 12.921 15.501C12.921 15.501 14.3601 20.5182 18.6467 21.9866ZM5.11329 14.7056C5.11329 14.7056 9.61421 8.03651 18.6467 7.36348V4.9467C8.63441 5.74209 0 14.1856 0 14.1856C0 14.1856 4.89896 28.3498 18.6467 29.6347V27.0649C8.54256 25.8106 5.11329 14.7056 5.11329 14.7056Z" fill="#76B900"/>
</svg>
