<svg width="26" height="18" viewBox="0 0 26 18" fill="none" xmlns="http://www.w3.org/2000/svg">
<path d="M9.73105 5.56852V4.04167C9.88859 4.02593 10.0304 4.02593 10.1879 4.02593C14.3943 3.9 17.1513 7.6463 17.1513 7.6463C17.1513 7.6463 14.1737 11.7546 10.9756 11.7546C10.5503 11.7546 10.1407 11.6917 9.73105 11.55V6.90648C11.3695 7.11111 11.7003 7.81944 12.6771 9.45648L14.8669 7.61481C14.8669 7.61481 13.26 5.5213 10.5818 5.5213C10.2982 5.5213 10.0146 5.53704 9.73105 5.56852ZM9.73105 0.5V2.78241L10.1879 2.75093C16.0327 2.5463 19.8453 7.53611 19.8453 7.53611C19.8453 7.53611 15.4656 12.8722 10.9126 12.8722C10.5188 12.8722 10.1249 12.8407 9.73105 12.762V14.1787C10.0461 14.2102 10.377 14.2417 10.7078 14.2417C14.9457 14.2417 18.0178 12.0694 20.9953 9.51944C21.4837 9.91296 23.5003 10.8731 23.9256 11.2824C21.1056 13.6435 14.5203 15.5481 10.7866 15.5481C10.4242 15.5481 10.0934 15.5324 9.7468 15.4852V17.5H25.8634V0.5H9.73105ZM9.73105 11.5657V12.7778C5.80824 12.0694 4.7212 7.99259 4.7212 7.99259C4.7212 7.99259 6.61171 5.91481 9.73105 5.56852V6.89074H9.71529C8.07685 6.68611 6.78501 8.2287 6.78501 8.2287C6.78501 8.2287 7.52546 10.8102 9.73105 11.5657ZM2.76768 7.81944C2.76768 7.81944 5.08355 4.38796 9.73105 4.04167V2.79815C4.57941 3.20741 0.136719 7.55185 0.136719 7.55185C0.136719 7.55185 2.6574 14.8398 9.73105 15.5009V14.1787C4.53215 13.5333 2.76768 7.81944 2.76768 7.81944Z" fill="#76B900"/>
</svg>
