<svg width="20" height="21" viewBox="0 0 20 21" fill="none" xmlns="http://www.w3.org/2000/svg">
<g id="person-sharp">
<rect y="0.5" width="20" height="20" rx="10" fill="#DEDEDF"/>
<path id="Vector" d="M9.99893 10.4999C10.6282 10.4999 11.2434 10.3133 11.7667 9.96364C12.2899 9.61401 12.6977 9.11708 12.9386 8.53568C13.1794 7.95428 13.2424 7.31452 13.1196 6.69731C12.9968 6.0801 12.6938 5.51315 12.2488 5.06816C11.8038 4.62318 11.2369 4.32014 10.6197 4.19737C10.0025 4.0746 9.36271 4.13761 8.78131 4.37843C8.1999 4.61926 7.70297 5.02708 7.35335 5.55033C7.00373 6.07357 6.81712 6.68875 6.81712 7.31805C6.81712 8.16192 7.15234 8.97123 7.74905 9.56793C8.34576 10.1646 9.15506 10.4999 9.99893 10.4999ZM9.99893 11.409C8.02678 11.409 4.08984 12.6271 4.08984 15.0453V16.8635H15.908V15.0453C15.908 12.6271 11.9711 11.409 9.99893 11.409Z" fill="white"/>
</g>
</svg>
