<svg width="93" height="25" viewBox="0 0 93 25" fill="none" xmlns="http://www.w3.org/2000/svg">
<path d="M30.0781 9.72806C29.9554 8.55369 28.9213 7.87009 27.4664 7.87009C25.9065 7.87009 24.9249 8.65885 24.9249 9.74559C24.9249 10.955 26.2395 11.4108 27.2386 11.6561L28.4655 11.9892C30.0957 12.3748 32.1114 13.2687 32.1289 15.5649C32.1114 17.7033 30.4112 19.2808 27.4139 19.2808C24.5743 19.2808 22.7865 17.8611 22.6638 15.5474H24.5918C24.7145 16.9321 25.924 17.5982 27.4139 17.5982C29.0264 17.5982 30.2008 16.7743 30.2183 15.5298C30.2008 14.4256 29.1667 13.9699 27.817 13.6193L26.3096 13.2161C24.2763 12.6552 22.9968 11.6211 22.9968 9.85076C22.9968 7.65975 24.9599 6.20493 27.519 6.20493C30.0957 6.20493 31.901 7.67728 31.9536 9.72806H30.0781Z" fill="black"/>
<path d="M38.141 19.2633C35.3365 19.2633 33.6188 17.3352 33.6188 14.373C33.6188 11.4458 35.3716 9.43009 38.0183 9.43009C40.1918 9.43009 42.2426 10.7797 42.2426 14.2152V14.8813H35.4768C35.5293 16.6867 36.5898 17.7209 38.1586 17.7209C39.2278 17.7209 39.9114 17.2651 40.2269 16.6867H42.1199C41.6992 18.2292 40.2269 19.2633 38.141 19.2633ZM35.4943 13.4791H40.4021C40.4021 12.0242 39.4732 10.9726 38.0359 10.9726C36.5372 10.9726 35.5644 12.1294 35.4943 13.4791Z" fill="black"/>
<path d="M45.9761 6.38021V19.0705H44.1006V6.38021H45.9761Z" fill="black"/>
<path d="M50.1302 6.38021V19.0705H48.2547V6.38021H50.1302Z" fill="black"/>
<path d="M52.5666 19.0705V6.38021H57.0888C60.0336 6.38021 61.4884 8.15054 61.4884 10.4993C61.4884 12.8305 60.0336 14.6184 57.0888 14.6184H54.4947V19.0705H52.5666ZM54.4947 12.9708H56.896C58.7715 12.9708 59.5428 11.9191 59.5428 10.4993C59.5428 9.062 58.7715 8.02784 56.896 8.02784H54.4947V12.9708Z" fill="black"/>
<path d="M67.2726 19.2633C64.5733 19.2633 62.8205 17.3002 62.8205 14.3555C62.8205 11.3932 64.5733 9.43009 67.2726 9.43009C69.9544 9.43009 71.7072 11.3932 71.7072 14.3555C71.7072 17.3002 69.9544 19.2633 67.2726 19.2633ZM67.2726 17.7033C68.9904 17.7033 69.8142 16.1784 69.8142 14.3555C69.8142 12.5326 68.9904 10.9726 67.2726 10.9726C65.5198 10.9726 64.696 12.5326 64.696 14.3555C64.696 16.1784 65.5198 17.7033 67.2726 17.7033Z" fill="black"/>
<path d="M73.5477 19.0705V9.55278H75.4232V19.0705H73.5477ZM74.4942 8.08043C73.8456 8.08043 73.3023 7.58964 73.3023 6.97616C73.3023 6.36268 73.8456 5.87189 74.4942 5.87189C75.1252 5.87189 75.6686 6.36268 75.6686 6.97616C75.6686 7.58964 75.1252 8.08043 74.4942 8.08043Z" fill="black"/>
<path d="M79.5773 13.4265V19.0705H77.7018V9.55278H79.5072V11.1128H79.6124C80.0681 10.0962 80.9971 9.43009 82.4169 9.43009C84.38 9.43009 85.6596 10.6571 85.6596 13.0233V19.0705H83.8016V13.2512C83.8016 11.8665 83.0479 11.0427 81.7859 11.0427C80.5063 11.0427 79.5773 11.9015 79.5773 13.4265Z" fill="black"/>
<path d="M92.3903 9.55278V11.0427H90.4447V16.266C90.4447 17.3352 90.9881 17.528 91.584 17.5456C91.847 17.5456 92.2676 17.5105 92.5305 17.493V19.1231C92.2676 19.1582 91.8645 19.1932 91.3562 19.1932C89.8838 19.1932 88.5692 18.3869 88.5867 16.6516V11.0427H87.1845V9.55278H88.5867V7.27414H90.4447V9.55278H92.3903Z" fill="black"/>
<path d="M13.7337 11.2219C13.7337 11.3466 13.7337 11.4713 13.7337 11.6584C13.7337 14.6509 11.3211 17.1446 8.28974 17.1446C6.06264 17.1446 4.083 15.7731 3.27877 13.7781C3.27877 13.6534 3.27877 13.591 3.27877 13.4663C3.27877 10.4738 5.69145 7.98005 8.72277 7.98005C10.9499 7.98005 12.8676 9.28928 13.7337 11.2219L13.6719 0C6.1245 0 0 6.17207 0 13.7781H3.15504V25C10.7024 25 16.8269 18.8279 16.8269 11.2219H13.7337Z" fill="black"/>
</svg>
