<svg width="18" height="18" viewBox="0 0 18 18" fill="none" xmlns="http://www.w3.org/2000/svg">
<g id="send">
<path id="Vector" d="M16.7551 7.98225L16.7495 7.97979L1.73496 1.75221C1.60867 1.69936 1.47125 1.67863 1.33499 1.69188C1.19873 1.70513 1.06788 1.75195 0.954141 1.82815C0.833975 1.90689 0.735269 2.01427 0.666905 2.14063C0.598541 2.26698 0.562664 2.40835 0.5625 2.55202V6.53487C0.562567 6.73127 0.631146 6.9215 0.756417 7.07276C0.881688 7.22402 1.0558 7.32684 1.24875 7.3635L9.4377 8.87768C9.46987 8.88378 9.49891 8.90092 9.5198 8.92615C9.5407 8.95137 9.55213 8.9831 9.55213 9.01585C9.55213 9.0486 9.5407 9.08032 9.5198 9.10555C9.49891 9.13077 9.46987 9.14791 9.4377 9.15401L1.2491 10.6682C1.05621 10.7048 0.882103 10.8074 0.756776 10.9586C0.631449 11.1097 0.562746 11.2998 0.5625 11.4961V15.4797C0.562407 15.6169 0.596375 15.7519 0.661355 15.8727C0.726336 15.9936 0.820296 16.0964 0.934805 16.1719C1.07255 16.2634 1.2342 16.3123 1.39957 16.3125C1.51454 16.3124 1.62833 16.2894 1.73426 16.2447L16.7484 10.0526L16.7551 10.0494C16.9572 9.96259 17.1294 9.81839 17.2504 9.63468C17.3714 9.45097 17.4359 9.23582 17.4359 9.01585C17.4359 8.79587 17.3714 8.58072 17.2504 8.39702C17.1294 8.21331 16.9572 8.06911 16.7551 7.98225Z" fill="black"/>
</g>
</svg>
