<svg width="18" height="18" viewBox="0 0 18 18" fill="none" xmlns="http://www.w3.org/2000/svg">
<g id="share-outline">
<path id="Vector" d="M11.8125 6.75H13.2188C13.5917 6.75 13.9494 6.89816 14.2131 7.16188C14.4768 7.4256 14.625 7.78329 14.625 8.15625V14.9062C14.625 15.2792 14.4768 15.6369 14.2131 15.9006C13.9494 16.1643 13.5917 16.3125 13.2188 16.3125H4.78125C4.40829 16.3125 4.0506 16.1643 3.78688 15.9006C3.52316 15.6369 3.375 15.2792 3.375 14.9062V8.15625C3.375 7.78329 3.52316 7.4256 3.78688 7.16188C4.0506 6.89816 4.40829 6.75 4.78125 6.75H6.1875M11.8125 4.5L9 1.6875M9 1.6875L6.1875 4.5M9 1.6875V11.2852" stroke="#8C8C8C" stroke-width="1.125" stroke-linecap="round" stroke-linejoin="round"/>
</g>
</svg>
