<svg width="19" height="18" viewBox="0 0 19 18" fill="none" xmlns="http://www.w3.org/2000/svg">
<g id="thumbs-up-sharp">
<path id="Vector" d="M16.5312 6.75003L11.0469 6.32816L11.8555 3.18519C12.0664 2.25003 11.828 1.71319 11.0655 1.47659L9.84594 1.1303C9.81707 1.12265 9.78652 1.12439 9.75871 1.13526C9.7309 1.14613 9.70727 1.16558 9.69125 1.19077L5.15609 8.30429C5.13094 8.3452 5.09573 8.37898 5.05383 8.40243C5.01192 8.42588 4.9647 8.4382 4.91668 8.43823H1.0625V15.75H5.19723C5.37861 15.75 5.55881 15.7792 5.7309 15.8365L8.41332 16.7305C8.70011 16.8262 9.00045 16.875 9.30277 16.875H15.5581C16.2261 16.875 16.6655 16.3997 16.7967 15.7444L17.9375 10.7431V8.15628C17.9375 7.38073 17.3047 6.82034 16.5312 6.75003Z" fill="#D5D5D5"/>
</g>
</svg>
