<svg width="19" height="18" viewBox="0 0 19 18" fill="none" xmlns="http://www.w3.org/2000/svg">
<g id="thumbs-down-sharp">
<path id="Vector" d="M2.46875 11.25L7.95488 11.6719L7.14629 14.8148C6.93254 15.75 7.1709 16.2868 7.93344 16.5241L9.15301 16.8704C9.18187 16.8781 9.21242 16.8763 9.24023 16.8655C9.26804 16.8546 9.29167 16.8352 9.3077 16.81L13.8429 9.69645C13.868 9.65554 13.9032 9.62175 13.9451 9.5983C13.987 9.57485 14.0342 9.56253 14.0823 9.5625H17.9375V2.25H13.8028C13.6214 2.25004 13.4412 2.22084 13.2691 2.16352L10.5867 1.26949C10.2999 1.17384 9.99955 1.12505 9.69723 1.125H3.44187C2.77391 1.125 2.33445 1.60031 2.20332 2.25563L1.0625 7.25695V9.84375C1.0625 10.6193 1.69531 11.1797 2.46875 11.25Z" fill="#D5D5D5"/>
<path id="Vector_2" d="M13.6016 9.81419L13.5664 9.88451C13.6173 9.77674 13.7005 9.68752 13.8044 9.62927C13.723 9.67377 13.6534 9.7372 13.6016 9.81419Z" fill="#D5D5D5"/>
</g>
</svg>
